# xmcd CD database file
#
# Track frame offsets:
#	150
#	23592
#	38730
#	64805
#	84050
#	111305
#	138562
#	151582
#
# Disc length: 2229 seconds
#
# Revision: 2
# Processed by: cddbd v1.4PL0 Copyright (c) Steve Scherf et al.
# Submitted via: CDex 1.50
#
DISCID=5608b308
DTITLE=Rufus Thomas - That Woman Is Poison!
DYEAR=1988
DGENRE=Soul
TTITLE0=That Woman Is Poison!
TTITLE1=I Just Got To Know
TTITLE2=Big Fine Hunk Of Woman
TTITLE3=Blues In The Basement
TTITLE4=Somebody's Got To Go
TTITLE5=Breaking My Back
TTITLE6=The Walk
TTITLE7=All Night Worker
EXTD=YEAR: 1988
EXTT0=
EXTT1=
EXTT2=
EXTT3=
EXTT4=
EXTT5=
EXTT6=
EXTT7=
PLAYORDER=
